<svg width="18" height="16" viewBox="0 0 18 16" fill="none" xmlns="http://www.w3.org/2000/svg">
<path fill-rule="evenodd" clip-rule="evenodd" d="M6.3982 3.31547C6.3982 4.87102 5.1158 6.13184 3.53247 6.13184C1.95007 6.13184 0.666748 4.87102 0.666748 3.31547C0.666748 1.76082 1.95007 0.5 3.53247 0.5C5.1158 0.5 6.3982 1.76082 6.3982 3.31547ZM16.0779 2.08194C16.7705 2.08194 17.3334 2.63502 17.3334 3.31547C17.3334 3.99682 16.7705 4.54991 16.0779 4.54991H10.5983C9.90475 4.54991 9.34179 3.99682 9.34179 3.31547C9.34179 2.63502 9.90475 2.08194 10.5983 2.08194H16.0779ZM1.92322 11.2983H7.40282C8.09634 11.2983 8.6593 11.8514 8.6593 12.5327C8.6593 13.2132 8.09634 13.7672 7.40282 13.7672H1.92322C1.22971 13.7672 0.666748 13.2132 0.666748 12.5327C0.666748 11.8514 1.22971 11.2983 1.92322 11.2983ZM14.4677 15.3148C16.051 15.3148 17.3334 14.054 17.3334 12.4993C17.3334 10.9438 16.051 9.68297 14.4677 9.68297C12.8853 9.68297 11.602 10.9438 11.602 12.4993C11.602 14.054 12.8853 15.3148 14.4677 15.3148Z" fill="white"/>
</svg>
